<svg xmlns="http://www.w3.org/2000/svg" width="14" height="10" viewBox="0 0 14 10">
  <metadata><?xpacket begin="﻿" id="W5M0MpCehiHzreSzNTczkc9d"?>
<x:xmpmeta xmlns:x="adobe:ns:meta/" x:xmptk="Adobe XMP Core 5.6-c138 79.159824, 2016/09/14-01:09:01        ">
   <rdf:RDF xmlns:rdf="http://www.w3.org/1999/02/22-rdf-syntax-ns#">
      <rdf:Description rdf:about=""/>
   </rdf:RDF>
</x:xmpmeta>
                                                                                                    
                                                                                                    
                                                                                                    
                                                                                                    
                                                                                                    
                                                                                                    
                                                                                                    
                                                                                                    
                                                                                                    
                                                                                                    
                                                                                                    
                                                                                                    
                                                                                                    
                                                                                                    
                                                                                                    
                                                                                                    
                                                                                                    
                                                                                                    
                                                                                                    
                                                                                                    
                           
<?xpacket end="w"?></metadata>
<defs>
    <style>
      .cls-1 {
        fill: #2b4b91;
        fill-rule: evenodd;
      }
    </style>
  </defs>
  <path id="letter" class="cls-1" d="M88,7661H76a1,1,0,0,1-1-1v-8a1,1,0,0,1,1-1H88a1,1,0,0,1,1,1v8A1,1,0,0,1,88,7661Zm-10.3-9,4.3,3.3,4.3-3.3H77.7Zm10.3,0H87.7l-5.3,4.3a0.687,0.687,0,0,1-.038.06,0.526,0.526,0,0,1-.715,0c-0.017-.02-0.024-0.04-0.038-0.06l-5.3-4.3H76v8H88v-8Z" transform="translate(-75 -7651)"/>
</svg>
