<svg xmlns="http://www.w3.org/2000/svg" width="30" height="10.03" viewBox="0 0 30 10.03">
  <metadata><?xpacket begin="﻿" id="W5M0MpCehiHzreSzNTczkc9d"?>
<x:xmpmeta xmlns:x="adobe:ns:meta/" x:xmptk="Adobe XMP Core 5.6-c138 79.159824, 2016/09/14-01:09:01        ">
   <rdf:RDF xmlns:rdf="http://www.w3.org/1999/02/22-rdf-syntax-ns#">
      <rdf:Description rdf:about=""/>
   </rdf:RDF>
</x:xmpmeta>
                                                                                                    
                                                                                                    
                                                                                                    
                                                                                                    
                                                                                                    
                                                                                                    
                                                                                                    
                                                                                                    
                                                                                                    
                                                                                                    
                                                                                                    
                                                                                                    
                                                                                                    
                                                                                                    
                                                                                                    
                                                                                                    
                                                                                                    
                                                                                                    
                                                                                                    
                                                                                                    
                           
<?xpacket end="w"?></metadata>
<defs>
    <style>
      .cls-1 {
        fill: #fff;
        fill-rule: evenodd;
      }
    </style>
  </defs>
  <path id="Rounded_Rectangle_2" data-name="Rounded Rectangle 2" class="cls-1" d="M1219.71,4512.31a0.942,0.942,0,0,1,0,1.35l-4.07,4.05a0.958,0.958,0,0,1-1.36-1.35l4.07-4.05A0.972,0.972,0,0,1,1219.71,4512.31Zm0,1.35a0.972,0.972,0,0,1-1.36,0l-4.07-4.05a0.958,0.958,0,1,1,1.36-1.35l4.07,4.05A0.942,0.942,0,0,1,1219.71,4513.66ZM1191,4512h26a1,1,0,0,1,0,2h-26A1,1,0,0,1,1191,4512Z" transform="translate(-1190 -4507.97)"/>
</svg>
