<svg xmlns="http://www.w3.org/2000/svg" width="20" height="24" viewBox="0 0 20 24">
  <metadata><?xpacket begin="﻿" id="W5M0MpCehiHzreSzNTczkc9d"?>
<x:xmpmeta xmlns:x="adobe:ns:meta/" x:xmptk="Adobe XMP Core 5.6-c138 79.159824, 2016/09/14-01:09:01        ">
   <rdf:RDF xmlns:rdf="http://www.w3.org/1999/02/22-rdf-syntax-ns#">
      <rdf:Description rdf:about=""/>
   </rdf:RDF>
</x:xmpmeta>
                                                                                                    
                                                                                                    
                                                                                                    
                                                                                                    
                                                                                                    
                                                                                                    
                                                                                                    
                                                                                                    
                                                                                                    
                                                                                                    
                                                                                                    
                                                                                                    
                                                                                                    
                                                                                                    
                                                                                                    
                                                                                                    
                                                                                                    
                                                                                                    
                                                                                                    
                                                                                                    
                           
<?xpacket end="w"?></metadata>
<defs>
    <style>
      .cls-1 {
        fill: #095dbb;
        fill-rule: evenodd;
      }
    </style>
  </defs>
  <path id="pin" class="cls-1" d="M1653,72s-10-8.477-10-14a10,10,0,1,1,20,0C1663,63.522,1653,72,1653,72Zm0-22a8,8,0,0,0-8,8c0,4.418,8,11,8,11s8-6.582,8-11A8,8,0,0,0,1653,50Zm0,12a4,4,0,1,1,4-4A4,4,0,0,1,1653,62Zm0-6a2,2,0,1,0,2,2A2,2,0,0,0,1653,56Z" transform="translate(-1643 -48)"/>
</svg>
